<?xml version="1.0" encoding="utf-8"?>
<!-- Svg Vector Icons : http://www.onlinewebfonts.com/icon -->
<!DOCTYPE svg PUBLIC "-//W3C//DTD SVG 1.1//EN" "http://www.w3.org/Graphics/SVG/1.1/DTD/svg11.dtd">
<svg version="1.1" xmlns="http://www.w3.org/2000/svg" xmlns:xlink="http://www.w3.org/1999/xlink" x="0px" y="0px" viewBox="0 0 256 256" enable-background="new 0 0 256 256" xml:space="preserve">
<metadata> Svg Vector Icons : http://www.onlinewebfonts.com/icon </metadata>
<g><g><g><path fill="#000000" d="M119.9,5.7C98.5,8.2,83,21.1,78.1,40.7c-1.6,6.4-2.5,14.7-2.2,22.5l0.2,6.5l-1.6,0.5c-1.8,0.6-4.8,3.6-6.1,6.1c-1.3,2.5-1.6,12.2-0.5,17.4c1.8,8.6,7.4,16.4,14.8,20.7c1.9,1.1,3.4,2.3,3.4,2.6c0,1.5,3.2,8.3,5.8,12.2c8.4,12.9,22.7,21.4,36.2,21.4c13.4,0,27.4-8.2,36.1-21.2c2.6-3.9,5.9-10.9,5.9-12.4c0-0.4,1.5-1.5,3.4-2.6c7.6-4.4,13-12.1,14.8-20.9c1.1-5.4,0.8-14.6-0.5-17.2c-1.3-2.6-4.3-5.5-6.1-6.1l-1.6-0.5l0.2-6.5c0.6-20.1-4.4-34.6-15.2-44.8C154.3,8.3,137.7,3.6,119.9,5.7z"/><path fill="#000000" d="M79.1,149.2c-17.9,6.8-29.3,12.3-37.7,18.2c-6.1,4.3-14.3,12.4-17.7,17.7c-7.1,10.8-12.1,26-13.4,40.4c-0.5,6-0.3,7.8,1,8.9c1.2,0.9,10.1,4.1,16.6,6c34.9,10,102.8,13.3,156.4,7.7c22.7-2.4,40.7-6.1,54.6-11.3c5.5-2,6.6-2.8,6.9-4.6c0.5-2.3-0.7-12.9-1.9-18.6c-5.7-25.7-18-41.4-41.7-53.5c-10-5.1-33-14.2-33.8-13.3c-0.2,0.3-1.3,3.9-2.3,8.1c-7.3,29.7-17,54.1-31.4,79.1c-5.4,9.3-6.6,10.2-9.2,7.1c-4.4-5.5-17.6-31.3-22.6-44.1c-5.4-13.8-10.6-30.2-14.1-45.3c-0.8-3.2-1.4-4.9-1.9-5C86.6,146.6,83,147.7,79.1,149.2z"/></g></g></g>
</svg>